<svg width="280" height="280" viewBox="0 0 280 280" fill="none" xmlns="http://www.w3.org/2000/svg">
<path d="M178.622 238.392L166.542 247.4H181.611H199.3V260H113.5C53.5545 260 5 211.628 5 152C5 92.3723 53.5545 44 113.5 44C173.445 44 222 92.3723 222 152V152.004C222.014 168.767 218.101 185.303 210.572 200.299C203.043 215.295 192.104 228.338 178.622 238.392ZM113.5 134.4C120.839 134.4 127.883 131.497 133.079 126.324C138.276 121.15 141.2 114.127 141.2 106.8C141.2 99.4729 138.276 92.4503 133.079 87.2761C127.883 82.1025 120.839 79.2 113.5 79.2C106.161 79.2 99.1174 82.1025 93.921 87.2761C88.7238 92.4503 85.8 99.4729 85.8 106.8C85.8 114.127 88.7238 121.15 93.921 126.324C99.1174 131.497 106.161 134.4 113.5 134.4ZM68.1 179.6C75.4394 179.6 82.4826 176.697 87.679 171.524C92.8762 166.35 95.8 159.327 95.8 152C95.8 144.673 92.8762 137.65 87.679 132.476C82.4826 127.303 75.4394 124.4 68.1 124.4C60.7606 124.4 53.7174 127.303 48.521 132.476C43.3238 137.65 40.4 144.673 40.4 152C40.4 159.327 43.3238 166.35 48.521 171.524C53.7174 176.697 60.7606 179.6 68.1 179.6ZM158.9 179.6C166.239 179.6 173.283 176.697 178.479 171.524C183.676 166.35 186.6 159.327 186.6 152C186.6 144.673 183.676 137.65 178.479 132.476C173.283 127.303 166.239 124.4 158.9 124.4C151.561 124.4 144.517 127.303 139.321 132.476C134.124 137.65 131.2 144.673 131.2 152C131.2 159.327 134.124 166.35 139.321 171.524C144.517 176.697 151.561 179.6 158.9 179.6ZM113.5 224.8C120.839 224.8 127.883 221.897 133.079 216.724C138.276 211.55 141.2 204.527 141.2 197.2C141.2 189.873 138.276 182.85 133.079 177.676C127.883 172.503 120.839 169.6 113.5 169.6C106.161 169.6 99.1174 172.503 93.921 177.676C88.7238 182.85 85.8 189.873 85.8 197.2C85.8 204.527 88.7238 211.55 93.921 216.724C99.1174 221.897 106.161 224.8 113.5 224.8Z" stroke="white" stroke-width="10"/>
<path d="M275 132.5C275 196.309 223.493 248 160 248C96.5068 248 45 196.309 45 132.5C45 68.6915 96.5068 17 160 17C223.493 17 275 68.6915 275 132.5Z" stroke="#DF2935" stroke-width="10"/>
</svg>
